<svg version="1.1" id="Layer_1" xmlns="http://www.w3.org/2000/svg" xmlns:xlink="http://www.w3.org/1999/xlink" x="0px" y="0px"
	 width="20px" height="20px" viewBox="0 0 500 500" enable-background="new 0 0 500 500" xml:space="preserve">
<path fill="#EE7421" opacity="1.000000" stroke="none" 
	d="
M223.000000,501.000000 
	C148.666687,501.000000 74.833366,501.000000 1.000040,501.000000 
	C1.000026,334.333405 1.000026,167.666779 1.000013,1.000129 
	C167.666565,1.000086 334.333130,1.000086 500.999756,1.000043 
	C500.999847,167.666534 500.999847,334.333069 500.999939,500.999817 
	C408.500000,501.000000 316.000000,501.000000 223.000000,501.000000 
M234.576157,395.009857 
	C281.503967,416.636810 337.185242,395.657074 358.951813,347.945770 
	C372.846405,317.489502 374.032990,285.737946 366.508667,253.660507 
	C356.390503,210.524933 326.889648,182.346664 285.804474,178.526459 
	C257.777924,175.920502 232.967789,182.827820 213.452805,204.349228 
	C212.760742,205.112427 211.774506,205.608887 210.132523,206.809280 
	C210.470016,203.463226 210.908585,201.105972 210.914780,198.747589 
	C210.980927,173.589905 211.195358,148.429626 210.912674,123.275185 
	C210.746307,108.473053 202.020386,99.934265 187.218277,98.975525 
	C186.221222,98.910950 185.222031,98.838959 184.223816,98.838432 
	C167.895828,98.829735 151.567841,98.822311 135.239899,98.850891 
	C133.981659,98.853096 132.723877,99.126198 131.422729,99.278435 
	C131.422729,114.400055 131.422729,129.153366 131.422729,144.519135 
	C136.295151,144.519135 140.921448,144.508286 145.547699,144.521393 
	C155.190155,144.548721 157.161942,146.548111 157.162186,156.317810 
	C157.164154,234.792099 157.162659,313.266388 157.162231,391.740692 
	C157.162231,393.694366 157.162231,395.648071 157.162231,397.819031 
	C174.407043,397.819031 191.108002,397.819031 208.055847,397.819031 
	C208.055847,389.787445 208.055847,382.103455 208.055847,373.282379 
	C215.476700,382.958374 224.147980,389.511536 234.576157,395.009857 
z"/>
<path fill="#FFFEFE" opacity="1.000000" stroke="none" 
	d="
M234.230865,394.867065 
	C224.147980,389.511536 215.476700,382.958374 208.055847,373.282379 
	C208.055847,382.103455 208.055847,389.787445 208.055847,397.819031 
	C191.108002,397.819031 174.407043,397.819031 157.162231,397.819031 
	C157.162231,395.648071 157.162231,393.694366 157.162231,391.740692 
	C157.162659,313.266388 157.164154,234.792099 157.162186,156.317810 
	C157.161942,146.548111 155.190155,144.548721 145.547699,144.521393 
	C140.921448,144.508286 136.295151,144.519135 131.422729,144.519135 
	C131.422729,129.153366 131.422729,114.400055 131.422729,99.278435 
	C132.723877,99.126198 133.981659,98.853096 135.239899,98.850891 
	C151.567841,98.822311 167.895828,98.829735 184.223816,98.838432 
	C185.222031,98.838959 186.221222,98.910950 187.218277,98.975525 
	C202.020386,99.934265 210.746307,108.473053 210.912674,123.275185 
	C211.195358,148.429626 210.980927,173.589905 210.914780,198.747589 
	C210.908585,201.105972 210.470016,203.463226 210.132523,206.809280 
	C211.774506,205.608887 212.760742,205.112427 213.452805,204.349228 
	C232.967789,182.827820 257.777924,175.920502 285.804474,178.526459 
	C326.889648,182.346664 356.390503,210.524933 366.508667,253.660507 
	C374.032990,285.737946 372.846405,317.489502 358.951813,347.945770 
	C337.185242,395.657074 281.503967,416.636810 234.230865,394.867065 
M310.674042,324.038910 
	C318.512939,303.116058 318.628601,281.964294 311.726746,260.895264 
	C304.382965,238.477295 285.985535,224.474121 264.505127,224.168625 
	C241.213669,223.837387 222.962708,236.335785 214.775467,259.351349 
	C207.091629,280.951782 207.186707,302.834351 215.638962,324.288330 
	C220.948807,337.766052 229.738571,348.447540 243.482025,354.151215 
	C269.899200,365.114624 297.900848,352.709778 310.674042,324.038910 
z"/>
<path fill="#EE7422" opacity="1.000000" stroke="none" 
	d="
M310.489319,324.373688 
	C297.900848,352.709778 269.899200,365.114624 243.482025,354.151215 
	C229.738571,348.447540 220.948807,337.766052 215.638962,324.288330 
	C207.186707,302.834351 207.091629,280.951782 214.775467,259.351349 
	C222.962708,236.335785 241.213669,223.837387 264.505127,224.168625 
	C285.985535,224.474121 304.382965,238.477295 311.726746,260.895264 
	C318.628601,281.964294 318.512939,303.116058 310.489319,324.373688 
z"/>
</svg>