<svg version="1.1" id="Layer_1" xmlns="http://www.w3.org/2000/svg" xmlns:xlink="http://www.w3.org/1999/xlink" x="0px" y="0px"
	 width="20px" height="20px" viewBox="0 0 400 400" enable-background="new 0 0 400 400" xml:space="preserve">
<path fill="#FF6633" opacity="1.000000" stroke="none" 
	d="
M180.000000,401.000000 
	C120.367783,401.000000 60.735569,401.000000 1.051677,401.000000 
	C1.051677,267.778107 1.051677,134.556213 1.051677,1.000000 
	C60.353809,1.000000 119.708244,1.000000 179.529678,1.468655 
	C179.996384,16.097221 180.086029,30.258326 179.898361,44.415749 
	C179.870361,46.527992 179.050049,49.034580 177.735809,50.665237 
	C150.462860,84.504669 123.061768,118.240784 95.695099,152.004700 
	C88.622398,160.730743 81.580551,169.481750 73.824776,179.087997 
	C109.864861,179.087997 144.735687,179.087997 180.057510,179.087997 
	C180.057510,208.485565 180.057510,237.390335 180.057510,266.999207 
	C199.317642,266.999207 218.134644,266.999207 237.756653,266.999207 
	C236.565521,268.626495 236.032135,269.424408 235.430481,270.167114 
	C217.925797,291.774414 200.354004,313.328094 182.999695,335.055481 
	C181.313828,337.166138 180.158798,340.334991 180.125275,343.029694 
	C179.884872,362.350647 179.998672,381.676025 180.000000,401.000000 
z"/>
<path fill="#FF6633" opacity="1.000000" stroke="none" 
	d="
M224.000000,1.000000 
	C282.965759,1.000000 341.931488,1.000000 400.948608,1.000000 
	C400.948608,134.221649 400.948608,267.443298 400.948608,401.000000 
	C342.312866,401.000000 283.625092,401.000000 224.291336,400.560425 
	C223.602570,386.292236 223.422150,372.461395 223.640747,358.636871 
	C223.681290,356.072754 224.722748,353.044861 226.325653,351.055756 
	C259.352142,310.072266 292.528595,269.209595 325.666351,228.315689 
	C326.832672,226.876419 327.907074,225.362686 329.694153,222.996948 
	C293.590912,222.996948 258.833496,222.996948 223.428375,222.996948 
	C223.428375,193.700317 223.428375,164.820999 223.428375,135.131958 
	C204.019394,135.131958 185.249771,135.131958 165.665955,135.131958 
	C184.540604,111.836624 202.731476,89.493904 220.723206,66.991966 
	C222.318451,64.996826 223.334290,61.980690 223.393600,59.410465 
	C223.670319,47.419441 223.459412,35.418118 223.537476,23.421217 
	C223.586121,15.946792 223.838867,8.473694 224.000000,1.000000 
z"/>
<path fill="#FFFEFD" opacity="1.000000" stroke="none" 
	d="
M223.531342,1.000000 
	C223.838867,8.473694 223.586121,15.946792 223.537476,23.421217 
	C223.459412,35.418118 223.670319,47.419441 223.393600,59.410465 
	C223.334290,61.980690 222.318451,64.996826 220.723206,66.991966 
	C202.731476,89.493904 184.540604,111.836624 165.665955,135.131958 
	C185.249771,135.131958 204.019394,135.131958 223.428375,135.131958 
	C223.428375,164.820999 223.428375,193.700317 223.428375,222.996948 
	C258.833496,222.996948 293.590912,222.996948 329.694153,222.996948 
	C327.907074,225.362686 326.832672,226.876419 325.666351,228.315689 
	C292.528595,269.209595 259.352142,310.072266 226.325653,351.055756 
	C224.722748,353.044861 223.681290,356.072754 223.640747,358.636871 
	C223.422150,372.461395 223.602570,386.292236 223.822678,400.560425 
	C209.645767,401.000000 195.291550,401.000000 180.468658,401.000000 
	C179.998672,381.676025 179.884872,362.350647 180.125275,343.029694 
	C180.158798,340.334991 181.313828,337.166138 182.999695,335.055481 
	C200.354004,313.328094 217.925797,291.774414 235.430481,270.167114 
	C236.032135,269.424408 236.565521,268.626495 237.756653,266.999207 
	C218.134644,266.999207 199.317642,266.999207 180.057510,266.999207 
	C180.057510,237.390335 180.057510,208.485565 180.057510,179.087997 
	C144.735687,179.087997 109.864861,179.087997 73.824776,179.087997 
	C81.580551,169.481750 88.622398,160.730743 95.695099,152.004700 
	C123.061768,118.240784 150.462860,84.504669 177.735809,50.665237 
	C179.050049,49.034580 179.870361,46.527992 179.898361,44.415749 
	C180.086029,30.258326 179.996384,16.097221 179.998337,1.468655 
	C194.354233,1.000000 208.708450,1.000000 223.531342,1.000000 
z"/>
</svg>