<svg version="1.1" id="Layer_1" xmlns="http://www.w3.org/2000/svg" xmlns:xlink="http://www.w3.org/1999/xlink" x="0px" y="0px"
	 width="20px" height="20px" viewBox="0 0 280 280" enable-background="new 0 0 280 280" xml:space="preserve">
<path fill="#000000" opacity="1.000000" stroke="none" 
	d="
M152.000000,281.000000 
	C101.333336,281.000000 51.166668,281.000000 1.000000,281.000000 
	C1.000000,187.666672 1.000000,94.333336 1.000000,1.000000 
	C94.333336,1.000000 187.666672,1.000000 281.000000,1.000000 
	C281.000000,94.333336 281.000000,187.666672 281.000000,281.000000 
	C238.166672,281.000000 195.333328,281.000000 152.000000,281.000000 
M89.208466,167.210342 
	C88.395020,168.104065 87.581581,168.997803 86.149666,170.062622 
	C85.023239,171.004791 83.896812,171.946976 82.203400,173.224899 
	C80.892181,174.398636 79.580971,175.572388 77.741394,177.033966 
	C76.485054,178.351501 75.228706,179.669052 73.372192,181.108658 
	C72.462646,181.846786 71.553101,182.584915 70.121948,183.713470 
	C69.045403,184.733322 67.968857,185.753174 66.316223,187.020401 
	C65.556534,187.727951 64.796844,188.435516 63.421162,189.308090 
	C62.228970,190.512466 61.036774,191.716843 59.288696,193.062088 
	C58.835804,193.653427 58.382912,194.244781 57.374889,195.220978 
	C56.211029,197.132294 55.047165,199.043625 53.210865,201.369644 
	C52.971729,204.500671 52.543900,207.630844 52.529545,210.762909 
	C52.489655,219.467682 57.288673,226.018005 65.644524,229.236282 
	C71.712090,231.573227 83.099709,231.036484 88.445793,224.353195 
	C93.163780,218.455093 98.164864,212.783432 103.694496,206.847214 
	C105.546227,204.594833 107.397957,202.342453 109.855095,199.816986 
	C111.989609,197.241547 114.124123,194.666107 116.864639,191.815384 
	C119.823586,188.206589 122.782532,184.597794 126.123070,180.398193 
	C128.778931,177.348175 131.434784,174.298157 134.725784,170.937485 
	C136.651184,168.041611 138.830811,165.609924 143.266800,166.888901 
	C144.169373,167.596756 145.071945,168.304611 146.142670,169.672989 
	C162.035751,187.977859 177.903778,206.304581 193.831573,224.579193 
	C202.996689,235.094727 223.240097,231.407120 228.220032,218.342819 
	C231.796127,208.961288 230.620575,198.976822 219.607864,189.670334 
	C203.720871,176.244766 187.897110,162.743408 172.144913,149.160141 
	C169.602875,146.968124 167.571716,144.183594 165.713242,141.068222 
	C166.297424,139.903168 166.614532,138.452133 167.507751,137.617996 
	C175.118164,130.511063 182.830475,123.513168 190.517731,116.488579 
	C199.170471,108.581749 207.869156,100.724670 216.473801,92.765884 
	C225.582275,84.341095 234.611954,75.830986 243.660721,67.341805 
	C252.967773,58.610325 262.476257,50.078354 271.480804,41.044609 
	C278.224548,34.278938 278.147034,21.137877 272.008972,14.009548 
	C262.021729,2.411033 246.837189,3.552985 235.996109,16.050085 
	C224.947464,28.786478 213.294495,40.998886 201.896088,53.431499 
	C191.168442,65.132477 180.443695,76.836205 169.687454,88.510880 
	C161.493256,97.404762 153.271896,106.273872 145.019379,115.113632 
	C142.447525,117.868492 139.352341,117.481850 137.208542,115.012444 
	C122.387444,97.940216 107.795067,80.669586 93.009674,63.566032 
	C90.341522,60.479553 87.528740,57.158524 84.075310,55.181515 
	C75.549675,50.300804 63.508347,50.926311 55.734810,61.445873 
	C50.991413,67.864899 50.264526,82.211327 59.454960,90.032509 
	C77.312920,105.229828 94.929237,120.710899 112.755684,135.945694 
	C115.573799,138.354095 117.143730,140.803696 115.842499,144.641052 
	C115.842499,144.641052 115.843681,144.885498 115.206299,144.915237 
	C114.105957,145.856567 113.005615,146.797897 111.281670,148.038300 
	C104.101318,154.327362 96.920967,160.616425 89.208466,167.210342 
z"/>
<path fill="#F1547F" opacity="1.000000" stroke="none" 
	d="
M116.046432,144.505463 
	C117.143730,140.803696 115.573799,138.354095 112.755684,135.945694 
	C94.929237,120.710899 77.312920,105.229828 59.454960,90.032509 
	C50.264526,82.211327 50.991413,67.864899 55.734810,61.445873 
	C63.508347,50.926311 75.549675,50.300804 84.075310,55.181515 
	C87.528740,57.158524 90.341522,60.479553 93.009674,63.566032 
	C107.795067,80.669586 122.387444,97.940216 137.208542,115.012444 
	C139.352341,117.481850 142.447525,117.868492 145.019379,115.113632 
	C153.271896,106.273872 161.493256,97.404762 169.687454,88.510880 
	C180.443695,76.836205 191.168442,65.132477 201.896088,53.431499 
	C213.294495,40.998886 224.947464,28.786478 235.996109,16.050085 
	C246.837189,3.552985 262.021729,2.411033 272.008972,14.009548 
	C278.147034,21.137877 278.224548,34.278938 271.480804,41.044609 
	C262.476257,50.078354 252.967773,58.610325 243.660721,67.341805 
	C234.611954,75.830986 225.582275,84.341095 216.473801,92.765884 
	C207.869156,100.724670 199.170471,108.581749 190.517731,116.488579 
	C182.830475,123.513168 175.118164,130.511063 167.507751,137.617996 
	C166.614532,138.452133 166.297424,139.903168 165.109634,141.429718 
	C161.002762,142.176453 157.499496,142.561691 153.605927,142.884338 
	C151.443451,143.112305 149.671280,143.402847 147.474304,143.703781 
	C145.370438,143.961288 143.691376,144.208389 141.653229,144.413483 
	C139.864334,144.608521 138.434509,144.845566 136.605942,145.028992 
	C135.144836,145.091263 134.082458,145.207153 132.658600,145.262238 
	C130.861069,145.414581 129.425034,145.627701 127.649651,145.725067 
	C125.885422,145.589615 124.460518,145.569916 122.673828,145.419281 
	C121.546158,145.261505 120.780289,145.234680 119.621635,145.114761 
	C118.168045,144.849594 117.107239,144.677521 116.046432,144.505463 
z"/>
<path fill="#0E9BF1" opacity="1.000000" stroke="none" 
	d="
M153.996231,142.946930 
	C157.499496,142.561691 161.002762,142.176453 164.905212,141.732086 
	C167.571716,144.183594 169.602875,146.968124 172.144913,149.160141 
	C187.897110,162.743408 203.720871,176.244766 219.607864,189.670334 
	C230.620575,198.976822 231.796127,208.961288 228.220032,218.342819 
	C223.240097,231.407120 202.996689,235.094727 193.831573,224.579193 
	C177.903778,206.304581 162.035751,187.977859 146.338135,169.143036 
	C152.429810,161.048798 152.902039,151.907440 153.996231,142.946930 
z"/>
<path fill="#0E9AF0" opacity="1.000000" stroke="none" 
	d="
M103.040939,207.011795 
	C98.164864,212.783432 93.163780,218.455093 88.445793,224.353195 
	C83.099709,231.036484 71.712090,231.573227 65.644524,229.236282 
	C57.288673,226.018005 52.489655,219.467682 52.529545,210.762909 
	C52.543900,207.630844 52.971729,204.500671 53.914429,201.245178 
	C61.240105,203.096420 67.755821,206.100693 74.510033,206.799393 
	C83.926888,207.773529 93.522072,207.023788 103.040939,207.011795 
z"/>
<path fill="#348BF1" opacity="1.000000" stroke="none" 
	d="
M137.004684,145.082611 
	C138.434509,144.845566 139.864334,144.608521 141.639832,144.796082 
	C139.895874,152.004395 137.798355,158.785675 135.721817,165.573364 
	C135.146103,167.455185 134.632660,169.356033 134.090637,171.248154 
	C131.434784,174.298157 128.778931,177.348175 125.586731,180.729858 
	C123.442886,181.883820 121.659500,182.478622 120.255432,183.564072 
	C107.919678,193.100555 93.863182,196.580383 78.617737,194.777496 
	C73.504051,194.172775 67.451057,194.697128 64.037163,189.143082 
	C64.796844,188.435516 65.556534,187.727951 66.817719,187.199738 
	C69.086288,188.224350 70.782578,189.293533 72.632050,189.878067 
	C83.619934,193.350861 94.342918,191.778168 104.872101,187.853439 
	C122.404480,181.318253 136.654297,162.305176 137.004684,145.082611 
z"/>
<path fill="#3E88F2" opacity="1.000000" stroke="none" 
	d="
M136.605942,145.028992 
	C136.654297,162.305176 122.404480,181.318253 104.872101,187.853439 
	C94.342918,191.778168 83.619934,193.350861 72.632050,189.878067 
	C70.782578,189.293533 69.086288,188.224350 67.105766,187.076050 
	C67.968857,185.753174 69.045403,184.733322 70.643600,183.835480 
	C78.469765,188.715530 86.644409,187.823425 94.291962,186.234039 
	C116.439354,181.631149 128.844116,167.231186 133.020096,145.323029 
	C134.082458,145.207153 135.144836,145.091263 136.605942,145.028992 
z"/>
<path fill="#4983F2" opacity="1.000000" stroke="none" 
	d="
M132.658600,145.262238 
	C128.844116,167.231186 116.439354,181.631149 94.291962,186.234039 
	C86.644409,187.823425 78.469765,188.715530 70.904404,183.640274 
	C71.553101,182.584915 72.462646,181.846786 74.092911,181.086853 
	C86.092583,183.055527 96.974487,182.625641 107.143349,176.452225 
	C118.785240,169.384506 126.117432,159.502457 127.988983,145.840820 
	C129.425034,145.627701 130.861069,145.414581 132.658600,145.262238 
z"/>
<path fill="#537FF2" opacity="1.000000" stroke="none" 
	d="
M127.649651,145.725067 
	C126.117432,159.502457 118.785240,169.384506 107.143349,176.452225 
	C96.974487,182.625641 86.092583,183.055527 74.392990,181.025833 
	C75.228706,179.669052 76.485054,178.351501 78.457413,177.001068 
	C84.269539,176.964279 89.451591,177.559402 94.445419,176.842773 
	C108.724579,174.793686 122.501945,159.408096 123.035622,145.550201 
	C124.460518,145.569916 125.885422,145.589615 127.649651,145.725067 
z"/>
<path fill="#1997F1" opacity="1.000000" stroke="none" 
	d="
M103.367722,206.929504 
	C93.522072,207.023788 83.926888,207.773529 74.510033,206.799393 
	C67.755821,206.100693 61.240105,203.096420 54.250648,201.037842 
	C55.047165,199.043625 56.211029,197.132294 57.750320,195.377167 
	C58.719433,196.300201 59.152271,197.443588 59.931374,197.776413 
	C68.969566,201.637268 78.374947,204.199936 88.256279,203.341476 
	C95.295113,202.729965 102.254730,201.206543 109.249695,200.090088 
	C107.397957,202.342453 105.546227,204.594833 103.367722,206.929504 
z"/>
<path fill="#2393F2" opacity="1.000000" stroke="none" 
	d="
M109.552399,199.953537 
	C102.254730,201.206543 95.295113,202.729965 88.256279,203.341476 
	C78.374947,204.199936 68.969566,201.637268 59.931374,197.776413 
	C59.152271,197.443588 58.719433,196.300201 58.027885,195.184723 
	C58.382912,194.244781 58.835804,193.653427 59.898750,193.154755 
	C75.520248,200.329147 90.768501,201.028107 106.329529,195.105698 
	C109.554581,193.878281 112.944633,193.084366 116.258636,192.090668 
	C114.124123,194.666107 111.989609,197.241547 109.552399,199.953537 
z"/>
<path fill="#2C8DEF" opacity="1.000000" stroke="none" 
	d="
M116.561646,191.953018 
	C112.944633,193.084366 109.554581,193.878281 106.329529,195.105698 
	C90.768501,201.028107 75.520248,200.329147 60.176689,193.084320 
	C61.036774,191.716843 62.228970,190.512466 63.729164,189.225586 
	C67.451057,194.697128 73.504051,194.172775 78.617737,194.777496 
	C93.863182,196.580383 107.919678,193.100555 120.255432,183.564072 
	C121.659500,182.478622 123.442886,181.883820 125.395935,181.025253 
	C122.782532,184.597794 119.823586,188.206589 116.561646,191.953018 
z"/>
<path fill="#5D7BF2" opacity="1.000000" stroke="none" 
	d="
M122.673828,145.419281 
	C122.501945,159.408096 108.724579,174.793686 94.445419,176.842773 
	C89.451591,177.559402 84.269539,176.964279 78.721596,176.857147 
	C79.580971,175.572388 80.892181,174.398636 82.863869,173.214737 
	C85.626526,173.314865 87.796402,173.819962 89.820198,173.472992 
	C106.046722,170.691040 115.860161,160.944290 120.014420,145.207855 
	C120.780289,145.234680 121.546158,145.261505 122.673828,145.419281 
z"/>
<path fill="#2A90F1" opacity="1.000000" stroke="none" 
	d="
M134.408218,171.092819 
	C134.632660,169.356033 135.146103,167.455185 135.721817,165.573364 
	C137.798355,158.785675 139.895874,152.004395 141.998901,144.838089 
	C143.691376,144.208389 145.370438,143.961288 147.490295,144.145782 
	C146.230515,151.884827 144.529938,159.192261 142.829361,166.499695 
	C138.830811,165.609924 136.651184,168.041611 134.408218,171.092819 
z"/>
<path fill="#1B96F1" opacity="1.000000" stroke="none" 
	d="
M143.048080,166.694305 
	C144.529938,159.192261 146.230515,151.884827 147.915100,144.135391 
	C149.671280,143.402847 151.443451,143.112305 153.605927,142.884338 
	C152.902039,151.907440 152.429810,161.048798 146.254059,168.812775 
	C145.071945,168.304611 144.169373,167.596756 143.048080,166.694305 
z"/>
<path fill="#6977EE" opacity="1.000000" stroke="none" 
	d="
M119.621635,145.114746 
	C115.860161,160.944290 106.046722,170.691040 89.820198,173.472992 
	C87.796402,173.819962 85.626526,173.314865 83.147362,173.046860 
	C83.896812,171.946976 85.023239,171.004791 86.800461,170.109772 
	C101.208031,171.012207 115.929688,157.908798 115.843681,144.885498 
	C115.843681,144.885498 115.842499,144.641052 115.944466,144.573257 
	C117.107239,144.677521 118.168045,144.849594 119.621635,145.114746 
z"/>
<path fill="#7070ED" opacity="1.000000" stroke="none" 
	d="
M89.740616,166.905502 
	C96.920967,160.616425 104.101318,154.327362 111.603058,148.292633 
	C110.639709,158.217407 100.272018,166.797333 89.740616,166.905502 
z"/>
<path fill="#6B75F1" opacity="1.000000" stroke="none" 
	d="
M89.474548,167.057922 
	C100.272018,166.797333 110.639709,158.217407 111.914856,148.143097 
	C113.005615,146.797897 114.105957,145.856567 115.524994,144.900360 
	C115.929688,157.908798 101.208031,171.012207 87.109695,170.024231 
	C87.581581,168.997803 88.395020,168.104065 89.474548,167.057922 
z"/>
</svg>