<svg version="1.1" id="Layer_1" xmlns="http://www.w3.org/2000/svg" xmlns:xlink="http://www.w3.org/1999/xlink" x="0px" y="0px"
	 width="20px" height="20px" viewBox="0 0 280 280" enable-background="new 0 0 280 280" xml:space="preserve">
<path fill="#154A84" opacity="1.000000" stroke="none" 
	d="
M0.999999,235.000000 
	C1.000000,172.645767 1.000000,110.291542 1.349041,47.355461 
	C2.031484,46.013100 2.463523,45.280033 2.683848,44.488075 
	C8.030920,25.267992 19.875465,11.891150 38.503262,4.609288 
	C41.657188,3.376375 44.833843,2.201623 48.000000,1.000000 
	C109.687561,1.000000 171.375122,1.000000 233.660629,1.355961 
	C248.663101,5.053297 261.318665,11.659166 269.572693,24.135773 
	C274.392792,31.421684 277.256256,40.002022 281.000000,48.000000 
	C281.000000,110.354225 281.000000,172.708450 280.650330,235.648865 
	C275.182220,253.751160 265.483948,267.615967 248.568817,275.567871 
	C244.167374,277.636993 239.529358,279.202942 235.000000,281.000000 
	C172.645767,281.000000 110.291542,281.000000 47.302788,280.670044 
	C28.488619,275.482483 14.501495,265.365265 6.393088,248.003952 
	C4.409232,243.756241 2.787964,239.339203 0.999999,235.000000 
M53.373573,104.879326 
	C47.545658,111.392059 40.733242,117.274185 36.079807,124.539207 
	C23.579199,144.055374 24.417400,178.421341 46.595123,200.299271 
	C65.878441,219.321899 100.210800,224.222183 123.024223,209.567947 
	C143.527298,196.397797 153.953506,177.765274 153.862518,153.250229 
	C153.749390,122.769379 153.838760,92.287781 153.825912,61.806507 
	C153.825241,60.198170 153.687119,58.589890 153.608292,56.879524 
	C144.554214,56.879524 135.851395,56.879524 126.808655,56.879524 
	C126.808655,72.339943 126.808655,87.419746 126.808655,102.962372 
	C101.896820,88.644295 77.676819,87.816269 53.373573,104.879326 
M231.742722,190.941299 
	C213.866943,190.418640 201.079224,175.577271 199.706192,164.121933 
	C197.959290,149.547333 198.294373,134.723175 197.707657,119.372864 
	C210.616333,119.372864 222.349243,119.372864 234.127533,119.372864 
	C234.127533,110.038704 234.127533,101.314735 234.127533,92.018921 
	C222.044067,92.018921 210.319641,92.018921 198.059845,92.018921 
	C198.059845,79.874619 198.059845,68.299759 198.059845,56.932873 
	C188.932053,56.932873 180.361084,56.932873 171.504456,56.932873 
	C171.504456,59.341953 171.504456,61.326954 171.504456,63.311954 
	C171.504456,93.142143 171.685822,122.973793 171.445602,152.802048 
	C171.261826,175.620834 180.029236,193.760574 198.529953,207.078262 
	C209.075943,214.669785 220.905899,218.318146 234.463776,218.089035 
	C234.463776,209.403473 234.502518,201.122726 234.386307,192.844177 
	C234.377502,192.217697 233.267090,191.606674 231.742722,190.941299 
z"/>
<path fill="#FDFDFE" opacity="1.000000" stroke="none" 
	d="
M47.531342,1.000000 
	C44.833843,2.201623 41.657188,3.376375 38.503262,4.609288 
	C19.875465,11.891150 8.030920,25.267992 2.683848,44.488075 
	C2.463523,45.280033 2.031484,46.013100 1.349041,46.886803 
	C1.000000,31.739161 1.000000,16.478323 1.000000,1.000000 
	C16.353544,1.000000 31.708113,1.000000 47.531342,1.000000 
z"/>
<path fill="#FCFDFE" opacity="1.000000" stroke="none" 
	d="
M281.000000,47.531342 
	C277.256256,40.002022 274.392792,31.421684 269.572693,24.135773 
	C261.318665,11.659166 248.663101,5.053297 234.129288,1.355961 
	C249.593384,1.000000 265.186768,1.000000 281.000000,1.000000 
	C281.000000,16.353529 281.000000,31.708105 281.000000,47.531342 
z"/>
<path fill="#FCFDFE" opacity="1.000000" stroke="none" 
	d="
M0.999999,235.468658 
	C2.787964,239.339203 4.409232,243.756241 6.393088,248.003952 
	C14.501495,265.365265 28.488619,275.482483 46.834129,280.670044 
	C31.739950,281.000000 16.479902,281.000000 1.000000,281.000000 
	C1.000000,265.979828 1.000000,250.958572 0.999999,235.468658 
z"/>
<path fill="#FDFEFE" opacity="1.000000" stroke="none" 
	d="
M235.468658,281.000000 
	C239.529358,279.202942 244.167374,277.636993 248.568817,275.567871 
	C265.483948,267.615967 275.182220,253.751160 280.650330,236.117523 
	C281.000000,250.927521 281.000000,265.855042 281.000000,281.000000 
	C265.979797,281.000000 250.958557,281.000000 235.468658,281.000000 
z"/>
<path fill="#FDFDFE" opacity="1.000000" stroke="none" 
	d="
M53.645870,104.646645 
	C77.676819,87.816269 101.896820,88.644295 126.808655,102.962372 
	C126.808655,87.419746 126.808655,72.339943 126.808655,56.879524 
	C135.851395,56.879524 144.554214,56.879524 153.608292,56.879524 
	C153.687119,58.589890 153.825241,60.198170 153.825912,61.806507 
	C153.838760,92.287781 153.749390,122.769379 153.862518,153.250229 
	C153.953506,177.765274 143.527298,196.397797 123.024223,209.567947 
	C100.210800,224.222183 65.878441,219.321899 46.595123,200.299271 
	C24.417400,178.421341 23.579199,144.055374 36.079807,124.539207 
	C40.733242,117.274185 47.545658,111.392059 53.645870,104.646645 
M89.628349,190.970459 
	C94.540504,190.268555 99.807487,190.470062 104.301964,188.704773 
	C121.624878,181.900833 130.888733,161.903214 125.200348,144.852142 
	C118.918251,126.021378 100.838005,115.882713 81.861191,120.549309 
	C64.969467,124.703163 53.558002,140.911469 55.001694,158.799118 
	C56.236710,174.101151 69.964691,190.696411 89.628349,190.970459 
z"/>
<path fill="#FEFEFE" opacity="1.000000" stroke="none" 
	d="
M232.205734,190.964874 
	C233.267090,191.606674 234.377502,192.217697 234.386307,192.844177 
	C234.502518,201.122726 234.463776,209.403473 234.463776,218.089035 
	C220.905899,218.318146 209.075943,214.669785 198.529953,207.078262 
	C180.029236,193.760574 171.261826,175.620834 171.445602,152.802048 
	C171.685822,122.973793 171.504456,93.142143 171.504456,63.311954 
	C171.504456,61.326954 171.504456,59.341953 171.504456,56.932873 
	C180.361084,56.932873 188.932053,56.932873 198.059845,56.932873 
	C198.059845,68.299759 198.059845,79.874619 198.059845,92.018921 
	C210.319641,92.018921 222.044067,92.018921 234.127533,92.018921 
	C234.127533,101.314735 234.127533,110.038704 234.127533,119.372864 
	C222.349243,119.372864 210.616333,119.372864 197.707657,119.372864 
	C198.294373,134.723175 197.959290,149.547333 199.706192,164.121933 
	C201.079224,175.577271 213.866943,190.418640 232.205734,190.964874 
z"/>
<path fill="#164A84" opacity="1.000000" stroke="none" 
	d="
M89.173126,190.963867 
	C69.964691,190.696411 56.236710,174.101151 55.001694,158.799118 
	C53.558002,140.911469 64.969467,124.703163 81.861191,120.549309 
	C100.838005,115.882713 118.918251,126.021378 125.200348,144.852142 
	C130.888733,161.903214 121.624878,181.900833 104.301964,188.704773 
	C99.807487,190.470062 94.540504,190.268555 89.173126,190.963867 
z"/>
</svg>