<svg version="1.1" id="Layer_1" xmlns="http://www.w3.org/2000/svg" xmlns:xlink="http://www.w3.org/1999/xlink" x="0px" y="0px"
	 width="20px" height="20px" viewBox="0 0 200 200" enable-background="new 0 0 200 200" xml:space="preserve">
<path fill="#F9FCFD" opacity="1.000000" stroke="none" 
	d="
M87.000000,1.000000 
	C96.020897,1.000000 105.041786,1.000000 114.705826,1.371552 
	C128.144714,2.504393 139.686188,7.622866 150.596741,13.502505 
	C163.127380,20.255209 173.755203,29.965824 181.892258,41.677940 
	C187.170334,49.274918 191.258148,57.834843 194.919861,66.374695 
	C197.724701,72.916153 199.028564,80.101196 201.000000,87.000000 
	C201.000000,96.354225 201.000000,105.708458 200.632706,115.699402 
	C197.348602,125.896072 195.275467,135.822739 191.316971,144.929916 
	C185.400604,158.541458 176.082047,170.094635 164.214676,179.012192 
	C156.803268,184.581390 148.565475,189.316376 140.126251,193.173645 
	C132.487564,196.665024 124.072647,198.458099 116.000000,201.000000 
	C106.312439,201.000000 96.624878,201.000000 86.300598,200.632706 
	C72.682220,198.282898 60.542923,194.110931 49.328136,187.109467 
	C29.408758,174.673615 14.766147,157.950455 6.972909,135.646713 
	C4.613182,128.893326 2.970902,121.889252 1.000000,115.000000 
	C1.000000,105.979103 1.000000,96.958214 1.370409,87.295822 
	C1.935152,84.860168 1.934208,83.018845 2.354344,81.279228 
	C6.120442,65.685356 12.122224,51.262661 22.557234,38.693871 
	C34.506493,24.301193 48.532112,13.063883 66.320137,6.971317 
	C73.099823,4.649211 80.100204,2.971428 87.000000,1.000000 
M192.200195,101.351936 
	C192.159348,100.890984 192.118515,100.430038 192.204453,99.144447 
	C192.115189,97.760475 192.025940,96.376495 192.015793,94.173965 
	C191.367691,91.710190 190.719589,89.246422 190.031601,85.920753 
	C189.502228,82.168282 189.455292,78.266869 188.351471,74.691765 
	C185.256577,64.667870 180.451859,55.627911 174.209320,46.975906 
	C165.582306,35.019123 154.748230,26.026020 141.963303,19.547440 
	C127.702454,12.320966 112.540802,8.345642 96.145607,10.809469 
	C87.114090,12.166702 77.737709,11.662035 69.323914,15.962523 
	C61.182102,20.123983 52.728985,23.902309 45.250320,29.062927 
	C39.392380,33.105175 34.427135,38.675510 29.787031,44.175816 
	C25.909061,48.772701 23.006441,54.208225 19.815346,59.361198 
	C18.479277,61.518673 18.438236,63.808998 21.628778,64.153053 
	C32.321045,65.306053 38.580750,71.457710 41.669178,82.035233 
	C41.773121,82.693466 41.877068,83.351700 41.873848,84.941086 
	C41.849495,95.052986 41.798889,105.164917 41.809795,115.276779 
	C41.817375,122.306206 45.240383,127.001587 51.024570,128.070450 
	C55.968819,128.984085 61.680847,124.943207 64.083519,118.142761 
	C64.063583,116.757256 64.043640,115.371750 64.160553,113.330208 
	C64.111824,112.888664 64.063095,112.447113 64.093079,111.500458 
	C64.065224,111.332344 64.037376,111.164238 64.160858,110.069153 
	C64.111328,101.381615 64.061798,92.694069 64.172775,83.222351 
	C64.315712,82.162224 64.458649,81.102104 64.972130,79.497673 
	C65.413818,78.420723 65.854050,77.343163 66.297424,76.266914 
	C69.104492,69.453003 78.319550,63.600533 85.556450,64.255608 
	C95.081161,65.117775 101.541069,70.192009 105.029442,79.685028 
	C105.229645,80.525826 105.429840,81.366623 105.764160,82.813416 
	C105.874130,83.212173 105.984093,83.610931 105.975067,84.939125 
	C105.962090,95.026115 105.877815,105.113914 105.991028,115.199486 
	C106.016319,117.452583 106.734749,119.697884 107.378517,122.566399 
	C108.280380,123.296440 109.401833,123.871262 110.046425,124.783157 
	C112.974480,128.925476 116.853432,128.166870 120.675285,126.811058 
	C124.745445,125.367149 128.174744,123.126747 128.175171,117.100334 
	C128.059250,105.097198 127.943329,93.094063 128.130920,80.424507 
	C129.064911,78.679558 129.689926,76.647079 130.993576,75.246101 
	C134.284851,71.709061 137.373672,66.486374 141.445389,65.436554 
	C157.558105,61.282162 170.429504,70.314301 170.013428,87.736160 
	C169.787231,97.206886 169.935913,106.687691 169.990860,116.163521 
	C170.018188,120.877068 174.837708,127.226181 178.827087,128.015182 
	C185.927917,129.419540 190.087662,125.030304 190.702713,115.729004 
	C191.113327,112.822037 191.523926,109.915070 192.114792,106.195030 
	C192.112579,104.810326 192.110367,103.425629 192.200195,101.351936 
M96.325333,117.102768 
	C96.182564,105.753868 96.039795,94.404968 95.995331,82.321915 
	C93.272446,76.069504 89.202774,73.267776 83.751335,73.892624 
	C79.336998,74.398598 74.990242,78.945984 73.874435,84.931068 
	C73.533241,97.941536 73.192039,110.951996 72.342941,124.414108 
	C68.599861,133.084564 61.879967,137.767883 52.567757,137.623184 
	C42.296200,137.463547 36.061920,131.362946 32.759686,121.150063 
	C32.570663,110.351593 32.463306,99.550674 32.138680,88.756287 
	C32.050865,85.836212 31.305321,82.935921 30.735113,79.343079 
	C30.067827,78.864639 29.198557,78.523148 28.766176,77.885445 
	C26.043974,73.870499 22.150997,72.983627 17.891438,74.269508 
	C13.637682,75.553635 12.142637,79.216011 11.378409,83.323006 
	C8.949512,96.375984 9.158878,109.352516 12.310041,122.255798 
	C16.455454,139.230301 24.676771,153.662827 37.302837,166.031738 
	C53.686768,182.081940 72.991974,190.828354 95.660507,192.112976 
	C121.965004,193.603622 144.858109,185.389618 163.728333,166.746384 
	C171.797592,158.774170 179.525467,150.512390 183.350784,139.391327 
	C169.440384,136.285507 164.568085,132.253159 160.752914,119.932564 
	C160.680145,109.069061 160.677368,98.204239 160.470810,87.343277 
	C160.433151,85.363281 159.564117,83.399101 159.580490,80.855995 
	C156.340363,75.122131 151.994049,72.826485 146.668320,74.036018 
	C142.538849,74.973862 137.935074,81.377831 137.922729,86.335297 
	C137.897507,96.476135 138.394714,106.644241 137.809723,116.750931 
	C137.126709,128.551346 133.308578,133.254669 123.844475,136.501099 
	C110.950485,140.924057 97.661026,132.244141 96.325333,117.102768 
z"/>
<path fill="#47704C" opacity="1.000000" stroke="none" 
	d="
M86.531342,1.000000 
	C80.100204,2.971428 73.099823,4.649211 66.320137,6.971317 
	C48.532112,13.063883 34.506493,24.301193 22.557234,38.693871 
	C12.122224,51.262661 6.120442,65.685356 2.354344,81.279228 
	C1.934208,83.018845 1.935152,84.860168 1.370409,86.827164 
	C1.000000,58.406425 1.000000,29.812853 1.000000,1.000000 
	C29.353851,1.000000 57.708267,1.000000 86.531342,1.000000 
z"/>
<path fill="#47704C" opacity="1.000000" stroke="none" 
	d="
M201.000000,86.531342 
	C199.028564,80.101196 197.724701,72.916153 194.919861,66.374695 
	C191.258148,57.834843 187.170334,49.274918 181.892258,41.677940 
	C173.755203,29.965824 163.127380,20.255209 150.596741,13.502505 
	C139.686188,7.622866 128.144714,2.504393 115.174484,1.371552 
	C143.593567,1.000000 172.187134,1.000000 201.000000,1.000000 
	C201.000000,29.353851 201.000000,57.708267 201.000000,86.531342 
z"/>
<path fill="#47704C" opacity="1.000000" stroke="none" 
	d="
M1.000000,115.468658 
	C2.970902,121.889252 4.613182,128.893326 6.972909,135.646713 
	C14.766147,157.950455 29.408758,174.673615 49.328136,187.109467 
	C60.542923,194.110931 72.682220,198.282898 85.831940,200.632706 
	C57.739338,201.000000 29.478678,201.000000 1.000000,201.000000 
	C1.000000,172.646149 1.000000,144.291733 1.000000,115.468658 
z"/>
<path fill="#47704C" opacity="1.000000" stroke="none" 
	d="
M116.468658,201.000000 
	C124.072647,198.458099 132.487564,196.665024 140.126251,193.173645 
	C148.565475,189.316376 156.803268,184.581390 164.214676,179.012192 
	C176.082047,170.094635 185.400604,158.541458 191.316971,144.929916 
	C195.275467,135.822739 197.348602,125.896072 200.632706,116.168060 
	C201.000000,144.260239 201.000000,172.520462 201.000000,201.000000 
	C172.979492,201.000000 144.958405,201.000000 116.468658,201.000000 
z"/>
<path fill="#073C8D" opacity="1.000000" stroke="none" 
	d="
M32.737835,121.976265 
	C36.061920,131.362946 42.296200,137.463547 52.567757,137.623184 
	C61.879967,137.767883 68.599861,133.084564 72.966019,124.025223 
	C74.061546,122.134354 74.926231,120.636833 74.943367,119.129677 
	C75.062332,108.663147 75.036041,98.194397 74.963737,87.727005 
	C74.955177,86.487480 74.385643,85.251823 74.076149,84.014374 
	C74.990242,78.945984 79.336998,74.398598 83.751335,73.892624 
	C89.202774,73.267776 93.272446,76.069504 95.671951,82.994553 
	C95.240082,94.414192 95.111031,105.161125 95.070274,115.908386 
	C95.067612,116.610451 95.741806,117.315063 96.101151,118.018494 
	C97.661026,132.244141 110.950485,140.924057 123.844475,136.501099 
	C133.308578,133.254669 137.126709,128.551346 137.809723,116.750931 
	C138.394714,106.644241 137.897507,96.476135 137.922729,86.335297 
	C137.935074,81.377831 142.538849,74.973862 146.668320,74.036018 
	C151.994049,72.826485 156.340363,75.122131 159.314636,81.647476 
	C159.032288,93.713409 158.949326,104.988617 159.077332,116.261436 
	C159.094772,117.797188 160.166458,119.320961 160.750015,120.850288 
	C164.568085,132.253159 169.440384,136.285507 183.350784,139.391327 
	C179.525467,150.512390 171.797592,158.774170 163.728333,166.746384 
	C144.858109,185.389618 121.965004,193.603622 95.660507,192.112976 
	C72.991974,190.828354 53.686768,182.081940 37.302837,166.031738 
	C24.676771,153.662827 16.455454,139.230301 12.310041,122.255798 
	C9.158878,109.352516 8.949512,96.375984 11.378409,83.323006 
	C12.142637,79.216011 13.637682,75.553635 17.891438,74.269508 
	C22.150997,72.983627 26.043974,73.870499 28.766176,77.885445 
	C29.198557,78.523148 30.067827,78.864639 30.541676,79.954941 
	C30.564447,84.297897 30.926886,88.027412 30.967342,91.760414 
	C31.060177,100.326706 30.912230,108.896294 31.074026,117.460533 
	C31.102650,118.975716 32.157097,120.471512 32.737835,121.976265 
z"/>
<path fill="#55C7C3" opacity="1.000000" stroke="none" 
	d="
M105.120834,79.011215 
	C101.541069,70.192009 95.081161,65.117775 85.556450,64.255608 
	C78.319550,63.600533 69.104492,69.453003 66.297424,76.266914 
	C65.854050,77.343163 65.413818,78.420723 64.437042,79.890091 
	C63.938732,81.523857 63.975502,82.765190 64.012268,84.006531 
	C64.061798,92.694069 64.111328,101.381615 63.917023,110.623810 
	C63.786915,111.454170 63.900642,111.729874 64.014374,112.005569 
	C64.063095,112.447113 64.111824,112.888664 63.818443,113.879677 
	C63.620224,115.938187 63.764114,117.447220 63.908009,118.956261 
	C61.680847,124.943207 55.968819,128.984085 51.024570,128.070450 
	C45.240383,127.001587 41.817375,122.306206 41.809795,115.276779 
	C41.798889,105.164917 41.849495,95.052986 42.182354,84.286346 
	C42.577995,82.760185 42.665131,81.888763 42.752266,81.017342 
	C42.395363,81.134583 42.038460,81.251816 41.681557,81.369057 
	C38.580750,71.457710 32.321045,65.306053 21.628778,64.153053 
	C18.438236,63.808998 18.479277,61.518673 19.815346,59.361198 
	C23.006441,54.208225 25.909061,48.772701 29.787031,44.175816 
	C34.427135,38.675510 39.392380,33.105175 45.250320,29.062927 
	C52.728985,23.902309 61.182102,20.123983 69.323914,15.962523 
	C77.737709,11.662035 87.114090,12.166702 96.145607,10.809469 
	C112.540802,8.345642 127.702454,12.320966 141.963303,19.547440 
	C154.748230,26.026020 165.582306,35.019123 174.209320,46.975906 
	C180.451859,55.627911 185.256577,64.667870 188.351471,74.691765 
	C189.455292,78.266869 189.502228,82.168282 190.028229,86.800682 
	C190.662125,90.117912 191.299408,92.555222 191.936676,94.992523 
	C192.025940,96.376495 192.115189,97.760475 191.899261,99.706161 
	C191.765427,100.858894 191.936798,101.449905 192.108154,102.040924 
	C192.110367,103.425629 192.112579,104.810326 191.641296,106.693069 
	C190.796936,110.183304 190.426041,113.175499 190.055145,116.167686 
	C190.087662,125.030304 185.927917,129.419540 178.827087,128.015182 
	C174.837708,127.226181 170.018188,120.877068 169.990860,116.163521 
	C169.935913,106.687691 169.787231,97.206886 170.013428,87.736160 
	C170.429504,70.314301 157.558105,61.282162 141.445389,65.436554 
	C137.373672,66.486374 134.284851,71.709061 130.993576,75.246101 
	C129.689926,76.647079 129.064911,78.679558 127.715973,81.066986 
	C127.207924,93.105827 127.095955,104.502136 127.066772,115.898659 
	C127.064949,116.611000 127.711426,117.324997 128.056274,118.038231 
	C128.174744,123.126747 124.745445,125.367149 120.675285,126.811058 
	C116.853432,128.166870 112.974480,128.925476 110.046425,124.783157 
	C109.401833,123.871262 108.280380,123.296440 107.526276,121.948410 
	C107.781235,109.872002 107.935486,98.413490 107.911964,86.955353 
	C107.909943,85.972229 106.727928,84.991516 106.094063,84.009689 
	C105.984093,83.610931 105.874130,83.212173 105.996460,82.328453 
	C105.859451,80.899399 105.490143,79.955307 105.120834,79.011215 
z"/>
<path fill="#4DC4C0" opacity="1.000000" stroke="none" 
	d="
M106.034561,84.474411 
	C106.727928,84.991516 107.909943,85.972229 107.911964,86.955353 
	C107.935486,98.413490 107.781235,109.872002 107.404037,121.638596 
	C106.734749,119.697884 106.016319,117.452583 105.991028,115.199486 
	C105.877815,105.113914 105.962090,95.026115 106.034561,84.474411 
z"/>
<path fill="#032880" opacity="1.000000" stroke="none" 
	d="
M32.748760,121.563164 
	C32.157097,120.471512 31.102650,118.975716 31.074026,117.460533 
	C30.912230,108.896294 31.060177,100.326706 30.967342,91.760414 
	C30.926886,88.027412 30.564447,84.297897 30.604956,80.296677 
	C31.305321,82.935921 32.050865,85.836212 32.138680,88.756287 
	C32.463306,99.550674 32.570663,110.351593 32.748760,121.563164 
z"/>
<path fill="#032B82" opacity="1.000000" stroke="none" 
	d="
M73.975296,84.472717 
	C74.385643,85.251823 74.955177,86.487480 74.963737,87.727005 
	C75.036041,98.194397 75.062332,108.663147 74.943367,119.129677 
	C74.926231,120.636833 74.061546,122.134354 73.219971,123.799400 
	C73.192039,110.951996 73.533241,97.941536 73.975296,84.472717 
z"/>
<path fill="#001978" opacity="1.000000" stroke="none" 
	d="
M160.751465,120.391426 
	C160.166458,119.320961 159.094772,117.797188 159.077332,116.261436 
	C158.949326,104.988617 159.032288,93.713409 159.063812,81.933289 
	C159.564117,83.399101 160.433151,85.363281 160.470810,87.343277 
	C160.677368,98.204239 160.680145,109.069061 160.751465,120.391426 
z"/>
<path fill="#35BCB7" opacity="1.000000" stroke="none" 
	d="
M128.115723,117.569283 
	C127.711426,117.324997 127.064949,116.611000 127.066772,115.898659 
	C127.095955,104.502136 127.207924,93.105827 127.564217,81.400192 
	C127.943329,93.094063 128.059250,105.097198 128.115723,117.569283 
z"/>
<path fill="#001575" opacity="1.000000" stroke="none" 
	d="
M96.213242,117.560631 
	C95.741806,117.315063 95.067612,116.610451 95.070274,115.908386 
	C95.111031,105.161125 95.240082,94.414192 95.622795,83.361626 
	C96.039795,94.404968 96.182564,105.753868 96.213242,117.560631 
z"/>
<path fill="#4BC4BF" opacity="1.000000" stroke="none" 
	d="
M190.378937,115.948349 
	C190.426041,113.175499 190.796936,110.183304 191.551178,107.099609 
	C191.523926,109.915070 191.113327,112.822037 190.378937,115.948349 
z"/>
<path fill="#4BC4BF" opacity="1.000000" stroke="none" 
	d="
M191.976227,94.583244 
	C191.299408,92.555222 190.662125,90.117912 190.048157,87.231628 
	C190.719589,89.246422 191.367691,91.710190 191.976227,94.583244 
z"/>
<path fill="#4DC4C0" opacity="1.000000" stroke="none" 
	d="
M105.075134,79.348122 
	C105.490143,79.955307 105.859451,80.899399 105.929398,82.025452 
	C105.429840,81.366623 105.229645,80.525826 105.075134,79.348122 
z"/>
<path fill="#3DBFBA" opacity="1.000000" stroke="none" 
	d="
M63.995766,118.549515 
	C63.764114,117.447220 63.620224,115.938187 63.750015,114.207695 
	C64.043640,115.371750 64.063583,116.757256 63.995766,118.549515 
z"/>
<path fill="#3FC0BB" opacity="1.000000" stroke="none" 
	d="
M41.675369,81.702148 
	C42.038460,81.251816 42.395363,81.134583 42.752266,81.017342 
	C42.665131,81.888763 42.577995,82.760185 42.235939,83.820770 
	C41.877068,83.351700 41.773121,82.693466 41.675369,81.702148 
z"/>
<path fill="#3DBFBA" opacity="1.000000" stroke="none" 
	d="
M64.092522,83.614441 
	C63.975502,82.765190 63.938732,81.523857 64.251770,80.162247 
	C64.458649,81.102104 64.315712,82.162224 64.092522,83.614441 
z"/>
<path fill="#4BC4BF" opacity="1.000000" stroke="none" 
	d="
M192.154175,101.696426 
	C191.936798,101.449905 191.765427,100.858894 191.835876,100.118484 
	C192.118515,100.430038 192.159348,100.890984 192.154175,101.696426 
z"/>
<path fill="#3DBFBA" opacity="1.000000" stroke="none" 
	d="
M64.053726,111.753014 
	C63.900642,111.729874 63.786915,111.454170 63.841354,111.087296 
	C64.037376,111.164238 64.065224,111.332344 64.053726,111.753014 
z"/>
</svg>