<svg id="svg" version="1.1" xmlns="http://www.w3.org/2000/svg" xmlns:xlink="http://www.w3.org/1999/xlink" width="20px" height="20px" viewBox="0, 0, 400,400"><g id="svgg"><path id="path0" d="M130.024 53.064 C 25.725 81.219,26.035 229.261,130.454 257.908 C 155.267 264.715,189.612 260.132,209.937 247.302 L 216.066 243.432 229.259 256.625 C 241.908 269.274,242.469 270.135,242.866 277.500 C 243.519 289.630,246.890 294.222,278.669 326.280 C 311.370 359.268,316.288 362.805,329.560 362.885 C 350.159 363.009,364.738 348.603,364.738 328.125 C 364.738 313.588,362.811 310.829,329.116 277.134 C 296.986 245.003,293.386 242.367,279.902 241.093 C 271.371 240.286,270.693 239.866,258.376 227.759 L 245.659 215.257 251.576 203.687 C 293.062 122.566,217.843 29.357,130.024 53.064 M173.371 87.619 C 225.633 99.662,244.502 166.286,206.434 204.355 C 164.795 245.994,92.880 219.639,87.965 160.939 C 84.080 114.543,127.702 77.095,173.371 87.619 " stroke="none" fill="#000000" fill-rule="evenodd"></path></g></svg>